<?xml version="1.0" standalone="no"?>
<!DOCTYPE svg PUBLIC "-//W3C//DTD SVG 20010904//EN"
 "http://www.w3.org/TR/2001/REC-SVG-20010904/DTD/svg10.dtd">
<svg version="1.0" xmlns="http://www.w3.org/2000/svg"
 width="360.000000pt" height="360.000000pt" viewBox="0 0 360.000000 360.000000"
 preserveAspectRatio="xMidYMid meet">
<metadata>
Created by potrace 1.14, written by Peter Selinger 2001-2017
</metadata>
<g transform="translate(0.000000,360.000000) scale(0.100000,-0.100000)"
fill="#000000" stroke="none">
<path d="M1337 2579 c-32 -19 -20 -46 25 -55 13 -2 32 -6 43 -8 114 -23 120
-55 119 -564 l-1 -352 26 -6 c41 -9 181 -53 215 -68 47 -21 66 -26 66 -18 1 4
3 104 5 222 10 512 22 731 40 749 11 11 40 15 107 15 85 0 107 -3 174 -18 90
-20 226 -125 275 -211 48 -86 84 -174 96 -235 2 -14 8 -43 13 -64 14 -62 10
-303 -7 -379 -24 -114 -78 -222 -150 -294 l-32 -33 24 -5 c14 -3 37 -8 53 -11
43 -9 83 -14 148 -18 54 -4 65 -1 90 21 16 14 38 32 49 42 21 17 92 102 112
136 31 49 66 136 82 200 18 74 21 100 21 190 1 223 -74 404 -224 548 -73 70
-204 140 -301 162 -5 2 -28 7 -50 13 -22 6 -53 14 -70 18 -16 4 -190 8 -385 9
-316 2 -400 5 -515 20 -16 2 -38 -1 -48 -6z"/>
<path d="M1152 1539 c-46 -10 -108 -29 -138 -43 -84 -39 -194 -119 -214 -157
-8 -14 -3 -14 43 2 29 9 66 20 82 23 17 3 55 9 85 15 57 10 306 8 350 -4 14
-3 34 -8 45 -10 135 -27 272 -86 419 -180 50 -32 138 -76 227 -113 83 -34 242
-60 346 -56 140 5 319 56 415 120 21 13 42 24 48 24 5 0 10 4 10 8 0 4 14 16
31 26 16 10 53 40 82 68 l52 49 -60 -39 c-53 -35 -122 -67 -165 -78 -8 -2 -35
-9 -60 -15 -58 -14 -219 -18 -279 -7 -25 5 -59 11 -76 14 -87 15 -245 71 -327
115 -235 127 -410 203 -528 229 -19 5 -46 11 -60 14 -63 16 -246 13 -328 -5z"/>
<path d="M990 1320 c-132 -28 -185 -44 -283 -87 -70 -32 -69 -41 1 -14 29 11
62 23 74 25 13 3 48 12 78 20 111 30 187 39 335 40 125 0 208 -9 308 -33 42
-10 77 -17 77 -15 0 5 -71 34 -95 39 -11 2 -21 4 -22 6 -2 1 -6 2 -10 3 -5 1
-17 5 -28 9 -85 28 -317 32 -435 7z"/>
</g>
</svg>
